<svg xmlns="http://www.w3.org/2000/svg" width="40" height="40" fill="none"><path fill="#fff" d="m21.604 17.528-1.543 3.344h-.157V16.8H17.71v6.892h1.861c.489 0 .933-.285 1.138-.728l1.543-3.345h.157v4.073h2.193V16.8h-1.861c-.489 0-.933.284-1.138.728m-8.227.178-.913 3.166h-.157l-.913-3.166a1.253 1.253 0 0 0-1.204-.906H8v6.892h2.193v-4.073h.157l1.252 4.073h1.567l1.253-4.073h.156v4.073h2.193V16.8h-2.19c-.558 0-1.049.37-1.204.906m12.165 2.226v3.76h2.189v-2.193h2.354c1.022 0 1.89-.655 2.213-1.567zm4.543-3.132h-4.856a3.445 3.445 0 0 0 3.387 2.82h3.77a2.35 2.35 0 0 0-2.302-2.82"/></svg>
